<?xml version="1.0" encoding="UTF-8"?>
<!DOCTYPE svg PUBLIC "-//W3C//DTD SVG 1.1//EN" "http://www.w3.org/Graphics/SVG/1.1/DTD/svg11.dtd">
<svg xmlns="http://www.w3.org/2000/svg" version="1.1" width="299px" height="300px" style="shape-rendering:geometricPrecision; text-rendering:geometricPrecision; image-rendering:optimizeQuality; fill-rule:evenodd; clip-rule:evenodd" xmlns:xlink="http://www.w3.org/1999/xlink">
<g><path style="opacity:1" fill="#020202" d="M -0.5,-0.5 C 49.1667,-0.5 98.8333,-0.5 148.5,-0.5C 151.201,6.37131 155.868,11.538 162.5,15C 166.879,21.1067 172.379,25.94 179,29.5C 185.17,31.6686 191.004,34.5019 196.5,38C 204.294,40.6483 212.127,43.1483 220,45.5C 224.128,43.1631 228.628,41.9964 233.5,42C 234.333,41.1667 235.167,40.3333 236,39.5C 238.198,33.2388 240.198,26.9055 242,20.5C 243.578,16.1174 246.745,13.7841 251.5,13.5C 254.147,16.1566 257.147,18.3232 260.5,20C 262.65,21.5899 264.983,22.2566 267.5,22C 261.348,14.775 254.015,9.27495 245.5,5.5C 243.914,3.82733 243.247,1.82733 243.5,-0.5C 261.833,-0.5 280.167,-0.5 298.5,-0.5C 298.5,99.5 298.5,199.5 298.5,299.5C 221.5,299.5 144.5,299.5 67.5,299.5C 68.6243,273.198 75.291,248.865 87.5,226.5C 80.5411,233.071 75.0411,240.737 71,249.5C 65.5711,265.74 62.4045,282.407 61.5,299.5C 40.8333,299.5 20.1667,299.5 -0.5,299.5C -0.5,199.5 -0.5,99.5 -0.5,-0.5 Z"/></g>
<g><path style="opacity:1" fill="#111111" d="M 148.5,-0.5 C 158.167,-0.5 167.833,-0.5 177.5,-0.5C 184.558,8.39258 193.558,14.8926 204.5,19C 213.723,21.6436 223.057,23.3103 232.5,24C 239.013,17.1588 241.346,8.99213 239.5,-0.5C 240.833,-0.5 242.167,-0.5 243.5,-0.5C 243.247,1.82733 243.914,3.82733 245.5,5.5C 254.015,9.27495 261.348,14.775 267.5,22C 264.983,22.2566 262.65,21.5899 260.5,20C 257.147,18.3232 254.147,16.1566 251.5,13.5C 246.745,13.7841 243.578,16.1174 242,20.5C 240.198,26.9055 238.198,33.2388 236,39.5C 235.167,40.3333 234.333,41.1667 233.5,42C 228.628,41.9964 224.128,43.1631 220,45.5C 212.127,43.1483 204.294,40.6483 196.5,38C 191.004,34.5019 185.17,31.6686 179,29.5C 172.379,25.94 166.879,21.1067 162.5,15C 155.868,11.538 151.201,6.37131 148.5,-0.5 Z"/></g>
<g><path style="opacity:1" fill="#202020" d="M 177.5,-0.5 C 198.167,-0.5 218.833,-0.5 239.5,-0.5C 241.346,8.99213 239.013,17.1588 232.5,24C 223.057,23.3103 213.723,21.6436 204.5,19C 193.558,14.8926 184.558,8.39258 177.5,-0.5 Z"/></g>
<g><path style="opacity:1" fill="#b6b6b6" d="M 110.5,66.5 C 109.761,66.369 109.094,66.5357 108.5,67C 105.302,71.0261 101.968,74.8595 98.5,78.5C 101.611,70.2798 105.777,62.6131 111,55.5C 111.279,59.1703 111.112,62.837 110.5,66.5 Z"/></g>
<g><path style="opacity:1" fill="#f9f9f9" d="M 110.5,66.5 C 110.5,71.8333 110.5,77.1667 110.5,82.5C 106.692,82.1632 103.026,82.6632 99.5,84C 103.421,84.203 107.255,84.703 111,85.5C 111.721,92.8226 112.221,100.156 112.5,107.5C 105.599,106.008 98.5988,105.341 91.5,105.5C 91.5,103.833 91.5,102.167 91.5,100.5C 91.8537,92.4423 94.1871,85.109 98.5,78.5C 101.968,74.8595 105.302,71.0261 108.5,67C 109.094,66.5357 109.761,66.369 110.5,66.5 Z"/></g>
<g><path style="opacity:1" fill="#9d9d9d" d="M 166.5,74.5 C 167.768,76.9052 168.435,79.5718 168.5,82.5C 166.774,82.8146 165.107,82.9813 163.5,83C 164.798,80.2731 165.798,77.4398 166.5,74.5 Z"/></g>
<g><path style="opacity:1" fill="#b3b3b3" d="M 183.5,86.5 C 181.456,84.7806 179.456,83.1139 177.5,81.5C 178.073,78.8534 178.74,76.1867 179.5,73.5C 181.608,77.5979 182.941,81.9312 183.5,86.5 Z"/></g>
<g><path style="opacity:1" fill="#f4f4f4" d="M 177.5,81.5 C 179.456,83.1139 181.456,84.7806 183.5,86.5C 186.431,93.5544 188.431,100.888 189.5,108.5C 184.266,109.802 178.933,109.802 173.5,108.5C 174.462,99.4337 175.795,90.4337 177.5,81.5 Z"/></g>
<g><path style="opacity:1" fill="#bebebe" d="M 87.5,93.5 C 86.6981,92.0484 86.1981,90.3817 86,88.5C 84.9509,90.6175 83.4509,92.2842 81.5,93.5C 82.985,88.5208 84.485,83.5208 86,78.5C 86.6107,83.496 87.1107,88.496 87.5,93.5 Z"/></g>
<g><path style="opacity:1" fill="#f7f7f7" d="M 171.5,104.5 C 171.5,105.833 171.5,107.167 171.5,108.5C 166.547,108.123 161.881,108.789 157.5,110.5C 156.833,110.5 156.5,110.833 156.5,111.5C 155.167,111.5 154.5,110.833 154.5,109.5C 157.6,101.368 160.6,93.2009 163.5,85C 165.749,84.1368 167.582,84.6368 169,86.5C 170.807,92.3689 171.641,98.3689 171.5,104.5 Z"/></g>
<g><path style="opacity:1" fill="#f6f6f6" d="M 87.5,93.5 C 87.5,94.8333 87.5,96.1667 87.5,97.5C 87.5,100.5 87.5,103.5 87.5,106.5C 84.7628,106.401 82.0961,106.735 79.5,107.5C 79.7349,102.759 80.4016,98.0923 81.5,93.5C 83.4509,92.2842 84.9509,90.6175 86,88.5C 86.1981,90.3817 86.6981,92.0484 87.5,93.5 Z"/></g>
<g><path style="opacity:1" fill="#ebebeb" d="M 120.5,107.5 C 120.631,108.376 120.298,109.043 119.5,109.5C 118.264,108.754 116.93,108.421 115.5,108.5C 115.5,105.167 115.5,101.833 115.5,98.5C 115.248,95.6802 115.748,93.0135 117,90.5C 118.407,96.0465 119.574,101.713 120.5,107.5 Z"/></g>
<g><path style="opacity:1" fill="#d6d6d6" d="M 197.5,112.5 C 195.833,112.5 194.167,112.5 192.5,112.5C 192.5,110.5 192.5,108.5 192.5,106.5C 192.716,101.399 193.55,96.3993 195,91.5C 196.36,98.4346 197.194,105.435 197.5,112.5 Z"/></g>
<g><path style="opacity:1" fill="#bfbfbf" d="M 91.5,100.5 C 91.5,102.167 91.5,103.833 91.5,105.5C 98.5988,105.341 105.599,106.008 112.5,107.5C 112.5,108.167 112.5,108.833 112.5,109.5C 105.282,107.755 97.949,106.755 90.5,106.5C 90.2053,104.265 90.5386,102.265 91.5,100.5 Z"/></g>
<g><path style="opacity:1" fill="#5f5f5f" d="M 87.5,97.5 C 88.1661,100.689 88.8328,104.023 89.5,107.5C 90.1067,107.376 90.44,107.043 90.5,106.5C 97.949,106.755 105.282,107.755 112.5,109.5C 112.5,109.833 112.5,110.167 112.5,110.5C 101.58,108.793 90.5801,108.126 79.5,108.5C 79.5,108.167 79.5,107.833 79.5,107.5C 82.0961,106.735 84.7628,106.401 87.5,106.5C 87.5,103.5 87.5,100.5 87.5,97.5 Z"/></g>
<g><path style="opacity:1" fill="#bbbbbb" d="M 79.5,108.5 C 90.5801,108.126 101.58,108.793 112.5,110.5C 113.782,111.708 113.782,113.042 112.5,114.5C 101.98,111.93 91.3135,111.097 80.5,112C 80,112.5 79.5,113 79,113.5C 78.3603,111.735 78.5269,110.068 79.5,108.5 Z"/></g>
<g><path style="opacity:1" fill="#aeaeae" d="M 171.5,104.5 C 172.167,105.833 172.833,107.167 173.5,108.5C 178.933,109.802 184.266,109.802 189.5,108.5C 190.338,108.842 190.672,109.508 190.5,110.5C 179.696,110.663 168.696,110.663 157.5,110.5C 161.881,108.789 166.547,108.123 171.5,108.5C 171.5,107.167 171.5,105.833 171.5,104.5 Z"/></g>
<g><path style="opacity:1" fill="#2c2c2c" d="M 192.5,106.5 C 192.5,108.5 192.5,110.5 192.5,112.5C 194.167,112.5 195.833,112.5 197.5,112.5C 196.833,113.167 196.167,113.833 195.5,114.5C 183.852,111.563 172.186,110.896 160.5,112.5C 158.901,112.768 157.568,112.434 156.5,111.5C 156.5,110.833 156.833,110.5 157.5,110.5C 168.696,110.663 179.696,110.663 190.5,110.5C 191.167,109.167 191.833,107.833 192.5,106.5 Z"/></g>
<g><path style="opacity:1" fill="#a2a2a2" d="M 160.5,112.5 C 172.186,110.896 183.852,111.563 195.5,114.5C 197.048,114.821 197.715,115.821 197.5,117.5C 188.833,116.833 180.167,116.167 171.5,115.5C 174.023,114.616 176.69,113.782 179.5,113C 173.175,112.5 166.842,112.334 160.5,112.5 Z"/></g>
<g><path style="opacity:1" fill="#fbfbfb" d="M 150.5,117.5 C 150.824,119.964 150.991,122.631 151,125.5C 152.684,127.351 154.517,129.018 156.5,130.5C 157.466,128.604 157.799,126.604 157.5,124.5C 161.502,124.036 165.169,124.702 168.5,126.5C 171.543,132.502 176.21,134.002 182.5,131C 184.439,129.568 185.772,127.735 186.5,125.5C 190.269,125.244 193.936,125.577 197.5,126.5C 197.5,128.833 197.5,131.167 197.5,133.5C 197.5,134.5 197.5,135.5 197.5,136.5C 197.167,136.5 196.833,136.5 196.5,136.5C 185.54,143.498 174.206,144.331 162.5,139C 163.044,139.717 163.711,140.217 164.5,140.5C 165.787,143.453 167.787,145.786 170.5,147.5C 170.611,148.117 170.944,148.617 171.5,149C 177.518,149.642 183.518,149.475 189.5,148.5C 190.833,148.667 192.167,148.833 193.5,149C 193.957,149.414 194.291,149.914 194.5,150.5C 190.062,159.992 185.729,169.492 181.5,179C 182.071,180.599 183.071,181.766 184.5,182.5C 169.209,192.475 152.542,199.141 134.5,202.5C 131.65,202.436 128.983,201.77 126.5,200.5C 109.118,192.956 95.6184,180.956 86,164.5C 82.3936,152.516 78.8936,140.516 75.5,128.5C 77.3878,126.012 78.0545,123.012 77.5,119.5C 77.5,118.5 77.5,117.5 77.5,116.5C 84.1741,116.713 90.8407,117.046 97.5,117.5C 97.8468,129.096 103.347,132.429 114,127.5C 115.094,125.922 115.928,124.255 116.5,122.5C 117.5,122.5 118.5,122.5 119.5,122.5C 118.833,124.819 118.666,127.153 119,129.5C 120.992,128.335 122.825,127.002 124.5,125.5C 125.29,126.609 125.79,127.942 126,129.5C 126.176,126.118 126.676,122.785 127.5,119.5C 130.096,126.787 132.596,134.12 135,141.5C 138.176,132.146 142.176,123.146 147,114.5C 147,117.167 147,119.833 147,122.5C 148.176,120.804 149.343,119.138 150.5,117.5 Z"/></g>
<g><path style="opacity:1" fill="#eaeaea" d="M 99.5,116.5 C 102.482,116.104 105.149,116.771 107.5,118.5C 105.559,121.334 102.893,122.168 99.5,121C 98.2721,119.51 98.2721,118.01 99.5,116.5 Z"/></g>
<g><path style="opacity:1" fill="#b6b6b6" d="M 115.5,98.5 C 115.5,101.833 115.5,105.167 115.5,108.5C 116.93,108.421 118.264,108.754 119.5,109.5C 120.298,109.043 120.631,108.376 120.5,107.5C 122.196,113.302 123.53,119.302 124.5,125.5C 122.825,127.002 120.992,128.335 119,129.5C 118.666,127.153 118.833,124.819 119.5,122.5C 118.5,122.5 117.5,122.5 116.5,122.5C 116.5,121.5 116.5,120.5 116.5,119.5C 118.527,119.662 120.527,119.495 122.5,119C 121.158,116.108 118.825,114.775 115.5,115C 114.663,113.989 114.33,112.822 114.5,111.5C 118.243,111.541 118.41,110.874 115,109.5C 114.19,105.642 114.357,101.976 115.5,98.5 Z"/></g>
<g><path style="opacity:1" fill="#c5c5c5" d="M 154.5,109.5 C 154.5,110.833 155.167,111.5 156.5,111.5C 157.568,112.434 158.901,112.768 160.5,112.5C 166.842,112.334 173.175,112.5 179.5,113C 176.69,113.782 174.023,114.616 171.5,115.5C 166.489,115.334 161.489,115.501 156.5,116C 154.963,117.11 154.297,118.61 154.5,120.5C 161.191,120.546 167.857,120.212 174.5,119.5C 174.799,121.604 174.466,123.604 173.5,125.5C 171.616,126.278 169.95,126.611 168.5,126.5C 165.169,124.702 161.502,124.036 157.5,124.5C 157.799,126.604 157.466,128.604 156.5,130.5C 154.517,129.018 152.684,127.351 151,125.5C 150.991,122.631 150.824,119.964 150.5,117.5C 151.655,114.672 152.989,112.005 154.5,109.5 Z"/></g>
<g><path style="opacity:1" fill="#bababa" d="M 197.5,126.5 C 193.936,125.577 190.269,125.244 186.5,125.5C 187.234,124.292 187.567,122.959 187.5,121.5C 190.807,122.051 194.14,122.384 197.5,122.5C 197.5,123.833 197.5,125.167 197.5,126.5 Z"/></g>
<g><path style="opacity:1" fill="#8a8a8a" d="M 77.5,119.5 C 78.0545,123.012 77.3878,126.012 75.5,128.5C 73.7191,125.817 73.2191,122.817 74,119.5C 74.6667,122.167 75.3333,124.833 76,127.5C 76.1829,124.635 76.6829,121.969 77.5,119.5 Z"/></g>
<g><path style="opacity:1" fill="#4f4f4f" d="M 233.5,136.5 C 231.047,145.646 225.38,150.646 216.5,151.5C 217.89,150.101 218.89,148.434 219.5,146.5C 220.742,144.389 220.742,142.389 219.5,140.5C 220.906,138.422 222.239,136.255 223.5,134C 224.793,133.51 226.127,133.343 227.5,133.5C 227.416,137.318 226.916,140.985 226,144.5C 227.649,141.725 228.816,138.725 229.5,135.5C 229.272,133.603 228.272,132.27 226.5,131.5C 228.173,129.914 230.173,129.247 232.5,129.5C 232.198,132.059 232.532,134.393 233.5,136.5 Z"/></g>
<g><path style="opacity:1" fill="#484848" d="M 115.5,134.5 C 109.12,139.509 101.787,141.509 93.5,140.5C 89.2395,139.356 85.5728,137.189 82.5,134C 83.5248,131.929 84.3581,129.762 85,127.5C 93.1934,137.881 103.36,140.215 115.5,134.5 Z"/></g>
<g><path style="opacity:1" fill="#e9e9e9" d="M 184.5,182.5 C 183.071,181.766 182.071,180.599 181.5,179C 185.729,169.492 190.062,159.992 194.5,150.5C 194.291,149.914 193.957,149.414 193.5,149C 192.167,148.833 190.833,148.667 189.5,148.5C 183.518,149.475 177.518,149.642 171.5,149C 170.944,148.617 170.611,148.117 170.5,147.5C 176.842,147.666 183.175,147.5 189.5,147C 193.511,144.457 196.178,140.957 197.5,136.5C 197.5,135.5 197.5,134.5 197.5,133.5C 199.263,131.115 200.763,128.448 202,125.5C 202.333,135.833 202.667,146.167 203,156.5C 203.417,153.578 204.417,150.911 206,148.5C 207.365,159.503 203.532,168.337 194.5,175C 191.29,177.717 187.956,180.217 184.5,182.5 Z"/></g>
<g><path style="opacity:1" fill="#b5b5b5" d="M 115.5,134.5 C 116.645,135.793 116.311,136.959 114.5,138C 107.747,142.673 100.747,143.506 93.5,140.5C 101.787,141.509 109.12,139.509 115.5,134.5 Z"/></g>
<g><path style="opacity:1" fill="#bebebe" d="M 216.5,151.5 C 225.38,150.646 231.047,145.646 233.5,136.5C 233.62,134.801 233.954,133.135 234.5,131.5C 234.272,129.603 233.272,128.27 231.5,127.5C 228.123,128.271 225.289,129.938 223,132.5C 222.189,126.623 224.689,122.79 230.5,121C 236.623,120.35 239.289,123.184 238.5,129.5C 236.698,145.965 227.698,155.632 211.5,158.5C 212.707,154.045 214.207,149.712 216,145.5C 216.495,147.473 216.662,149.473 216.5,151.5 Z"/></g>
<g><path style="opacity:1" fill="#242424" d="M 196.5,136.5 C 195.797,138.716 194.464,140.549 192.5,142C 182.792,147.777 173.459,147.277 164.5,140.5C 163.711,140.217 163.044,139.717 162.5,139C 174.206,144.331 185.54,143.498 196.5,136.5 Z"/></g>
<g><path style="opacity:1" fill="#b8b8b8" d="M 219.5,140.5 C 220.742,142.389 220.742,144.389 219.5,146.5C 218.709,144.691 218.709,142.691 219.5,140.5 Z"/></g>
<g><path style="opacity:1" fill="#b6b6b6" d="M 196.5,136.5 C 196.833,136.5 197.167,136.5 197.5,136.5C 196.178,140.957 193.511,144.457 189.5,147C 183.175,147.5 176.842,147.666 170.5,147.5C 167.787,145.786 165.787,143.453 164.5,140.5C 173.459,147.277 182.792,147.777 192.5,142C 194.464,140.549 195.797,138.716 196.5,136.5 Z"/></g>
<g><path style="opacity:1" fill="#6a6a6a" d="M 194.5,193.5 C 194.737,194.791 194.404,195.791 193.5,196.5C 193.565,196.062 193.399,195.728 193,195.5C 191.587,197.414 189.753,198.747 187.5,199.5C 184.853,190.433 187.186,188.433 194.5,193.5 Z"/></g>
<g><path style="opacity:1" fill="#5d5d5d" d="M 184.5,182.5 C 185.436,186.735 185.769,191.069 185.5,195.5C 176.525,202.273 166.858,208.106 156.5,213C 154.26,213.977 151.927,214.477 149.5,214.5C 148.5,214.5 147.5,214.5 146.5,214.5C 146.67,213.178 146.337,212.011 145.5,211C 146.277,207.556 147.277,204.556 148.5,202C 143.737,202.189 139.07,203.023 134.5,204.5C 132.039,203.469 129.373,202.802 126.5,202.5C 126.5,201.833 126.5,201.167 126.5,200.5C 128.983,201.77 131.65,202.436 134.5,202.5C 152.542,199.141 169.209,192.475 184.5,182.5 Z"/></g>
<g><path style="opacity:1" fill="#d6d6d6" d="M 194.5,193.5 C 196.531,194.539 197.864,196.205 198.5,198.5C 188.472,217.392 177.805,235.892 166.5,254C 166.264,255.451 166.264,256.951 166.5,258.5C 163.695,263.769 161.362,263.436 159.5,257.5C 157.892,254.618 156.559,251.618 155.5,248.5C 160.705,236.642 167.372,225.142 175.5,214C 175.167,213.667 174.833,213.333 174.5,213C 178.723,210.139 178.39,208.639 173.5,208.5C 165.839,211.995 158.505,215.995 151.5,220.5C 150.833,220.5 150.167,220.5 149.5,220.5C 148.192,219.768 146.858,218.934 145.5,218C 146.167,217.667 146.833,217.333 147.5,217C 144.305,216.819 141.305,216.319 138.5,215.5C 142.371,215.815 146.038,215.482 149.5,214.5C 151.927,214.477 154.26,213.977 156.5,213C 166.858,208.106 176.525,202.273 185.5,195.5C 185.964,200.63 183.631,203.797 178.5,205C 177.304,205.654 177.304,206.154 178.5,206.5C 184.082,203.887 189.082,200.554 193.5,196.5C 194.404,195.791 194.737,194.791 194.5,193.5 Z"/></g>
<g><path style="opacity:1" fill="#717171" d="M 149.5,214.5 C 146.038,215.482 142.371,215.815 138.5,215.5C 138.167,215.5 137.833,215.5 137.5,215.5C 137.162,211.727 136.496,208.727 135.5,206.5C 135.167,206.5 134.833,206.5 134.5,206.5C 134.5,205.833 134.5,205.167 134.5,204.5C 139.07,203.023 143.737,202.189 148.5,202C 147.277,204.556 146.277,207.556 145.5,211C 146.337,212.011 146.67,213.178 146.5,214.5C 147.5,214.5 148.5,214.5 149.5,214.5 Z"/></g>
<g><path style="opacity:1" fill="#fbfbfb" d="M 126.5,202.5 C 129.373,202.802 132.039,203.469 134.5,204.5C 134.5,205.167 134.5,205.833 134.5,206.5C 132.197,211.77 129.364,216.77 126,221.5C 125.825,226.019 125.325,230.353 124.5,234.5C 123.205,230.266 121.539,226.266 119.5,222.5C 118.756,218.003 116.756,214.336 113.5,211.5C 113.5,211.167 113.5,210.833 113.5,210.5C 117.295,207.095 121.628,204.429 126.5,202.5 Z"/></g>
<g><path style="opacity:1" fill="#b3b3b3" d="M 198.5,198.5 C 201.194,201.876 203.527,205.543 205.5,209.5C 202.258,211.03 200.758,213.696 201,217.5C 195.227,223.418 191.394,230.084 189.5,237.5C 182.159,244.841 174.492,251.841 166.5,258.5C 166.264,256.951 166.264,255.451 166.5,254C 177.805,235.892 188.472,217.392 198.5,198.5 Z"/></g>
<g><path style="opacity:1" fill="#efefef" d="M 173.5,208.5 C 178.39,208.639 178.723,210.139 174.5,213C 174.833,213.333 175.167,213.667 175.5,214C 167.372,225.142 160.705,236.642 155.5,248.5C 154.87,246.25 153.87,244.25 152.5,242.5C 150.924,235.845 148.591,229.511 145.5,223.5C 147.819,223.008 149.819,222.008 151.5,220.5C 159.482,217.512 166.815,213.512 173.5,208.5 Z"/></g>
<g><path style="opacity:1" fill="#4a4a4a" d="M 173.5,208.5 C 166.815,213.512 159.482,217.512 151.5,220.5C 158.505,215.995 165.839,211.995 173.5,208.5 Z"/></g>
<g><path style="opacity:1" fill="#464646" d="M 113.5,211.5 C 116.756,214.336 118.756,218.003 119.5,222.5C 117.262,219.028 115.262,215.362 113.5,211.5 Z"/></g>
<g><path style="opacity:1" fill="#444444" d="M 137.5,215.5 C 137.33,220.859 136.83,226.192 136,231.5C 135.809,229.292 135.309,227.292 134.5,225.5C 135.418,219.225 135.751,212.892 135.5,206.5C 136.496,208.727 137.162,211.727 137.5,215.5 Z"/></g>
<g><path style="opacity:1" fill="#bcbcbc" d="M 113.5,210.5 C 113.5,210.833 113.5,211.167 113.5,211.5C 115.262,215.362 117.262,219.028 119.5,222.5C 120.671,226.492 121.505,230.492 122,234.5C 117.333,238.5 112.667,242.5 108,246.5C 110.183,234.468 112.016,222.468 113.5,210.5 Z"/></g>
<g><path style="opacity:1" fill="#949494" d="M 205.5,209.5 C 206.97,211.151 208.303,212.985 209.5,215C 204.793,224.209 198.126,231.709 189.5,237.5C 191.394,230.084 195.227,223.418 201,217.5C 200.758,213.696 202.258,211.03 205.5,209.5 Z"/></g>
<g><path style="opacity:1" fill="#4b4b4b" d="M 149.5,220.5 C 150.167,220.5 150.833,220.5 151.5,220.5C 149.819,222.008 147.819,223.008 145.5,223.5C 146.436,222.026 147.77,221.026 149.5,220.5 Z"/></g>
<g><path style="opacity:1" fill="#4e4e4e" d="M 145.5,223.5 C 148.591,229.511 150.924,235.845 152.5,242.5C 152.167,242.5 151.833,242.5 151.5,242.5C 150.069,237.989 148.402,233.655 146.5,229.5C 146.539,228.244 146.039,227.244 145,226.5C 142.628,235.117 139.795,243.45 136.5,251.5C 138.662,243.519 140.829,235.519 143,227.5C 143.2,225.68 144.034,224.347 145.5,223.5 Z"/></g>
<g><path style="opacity:1" fill="#eeeeee" d="M 67.5,299.5 C 65.5,299.5 63.5,299.5 61.5,299.5C 62.4045,282.407 65.5711,265.74 71,249.5C 75.0411,240.737 80.5411,233.071 87.5,226.5C 75.291,248.865 68.6243,273.198 67.5,299.5 Z"/></g>
<g><path style="opacity:1" fill="#f3f3f3" d="M 137.5,215.5 C 137.833,215.5 138.167,215.5 138.5,215.5C 141.305,216.319 144.305,216.819 147.5,217C 146.833,217.333 146.167,217.667 145.5,218C 146.858,218.934 148.192,219.768 149.5,220.5C 147.77,221.026 146.436,222.026 145.5,223.5C 144.034,224.347 143.2,225.68 143,227.5C 140.829,235.519 138.662,243.519 136.5,251.5C 134.858,254.102 133.192,256.769 131.5,259.5C 129.789,253.977 129.122,248.31 129.5,242.5C 130.434,241.432 130.768,240.099 130.5,238.5C 132.277,235.495 133.277,232.162 133.5,228.5C 134.404,227.791 134.737,226.791 134.5,225.5C 135.309,227.292 135.809,229.292 136,231.5C 136.83,226.192 137.33,220.859 137.5,215.5 Z"/></g>
<g><path style="opacity:1" fill="#4e4e4e" d="M 133.5,228.5 C 133.277,232.162 132.277,235.495 130.5,238.5C 130.59,234.786 131.59,231.452 133.5,228.5 Z"/></g>
<g><path style="opacity:1" fill="#949494" d="M 146.5,229.5 C 148.402,233.655 150.069,237.989 151.5,242.5C 150.95,245.927 149.616,248.927 147.5,251.5C 147.908,248.401 146.741,246.067 144,244.5C 143.833,243.5 143.667,242.5 143.5,241.5C 143.77,237.171 144.77,233.171 146.5,229.5 Z"/></g>
<g><path style="opacity:1" fill="#adadad" d="M 134.5,206.5 C 134.833,206.5 135.167,206.5 135.5,206.5C 135.751,212.892 135.418,219.225 134.5,225.5C 134.737,226.791 134.404,227.791 133.5,228.5C 131.59,231.452 130.59,234.786 130.5,238.5C 130.768,240.099 130.434,241.432 129.5,242.5C 127.765,246.041 126.431,249.707 125.5,253.5C 124.476,250.445 123.143,247.445 121.5,244.5C 121.043,243.702 120.376,243.369 119.5,243.5C 119.769,240.403 120.935,237.737 123,235.5C 124.107,236.712 124.607,236.379 124.5,234.5C 125.325,230.353 125.825,226.019 126,221.5C 129.364,216.77 132.197,211.77 134.5,206.5 Z"/></g>
<g><path style="opacity:1" fill="#efefef" d="M 146.5,229.5 C 144.77,233.171 143.77,237.171 143.5,241.5C 143.667,242.5 143.833,243.5 144,244.5C 146.741,246.067 147.908,248.401 147.5,251.5C 145.686,253.965 144.353,256.632 143.5,259.5C 147.813,258.674 151.98,257.34 156,255.5C 157.011,256.056 157.844,256.722 158.5,257.5C 146.878,270.794 135.212,284.127 123.5,297.5C 118.976,279.735 117.643,261.735 119.5,243.5C 120.376,243.369 121.043,243.702 121.5,244.5C 123.143,247.445 124.476,250.445 125.5,253.5C 127.249,261.802 127.915,270.135 127.5,278.5C 128.086,278.291 128.586,277.957 129,277.5C 129.333,273.5 129.667,269.5 130,265.5C 132.988,261.192 135.155,256.525 136.5,251.5C 139.795,243.45 142.628,235.117 145,226.5C 146.039,227.244 146.539,228.244 146.5,229.5 Z"/></g>
<g><path style="opacity:1" fill="#727272" d="M 151.5,242.5 C 151.833,242.5 152.167,242.5 152.5,242.5C 153.87,244.25 154.87,246.25 155.5,248.5C 156.559,251.618 157.892,254.618 159.5,257.5C 159.167,257.5 158.833,257.5 158.5,257.5C 157.844,256.722 157.011,256.056 156,255.5C 151.98,257.34 147.813,258.674 143.5,259.5C 144.353,256.632 145.686,253.965 147.5,251.5C 149.616,248.927 150.95,245.927 151.5,242.5 Z"/></g>
<g><path style="opacity:1" fill="#6a6a6a" d="M 129.5,242.5 C 129.122,248.31 129.789,253.977 131.5,259.5C 133.192,256.769 134.858,254.102 136.5,251.5C 135.155,256.525 132.988,261.192 130,265.5C 129.667,269.5 129.333,273.5 129,277.5C 128.586,277.957 128.086,278.291 127.5,278.5C 127.915,270.135 127.249,261.802 125.5,253.5C 126.431,249.707 127.765,246.041 129.5,242.5 Z"/></g>
<g><path style="opacity:1" fill="#5c5c5c" d="M 131.5,275.5 C 132.5,275.5 133.5,275.5 134.5,275.5C 134.884,277.665 134.217,279.332 132.5,280.5C 130.296,279.218 129.962,277.551 131.5,275.5 Z"/></g>
</svg>
